<?xml version="1.0" encoding="UTF-8" standalone="no"?>
<svg
   xmlns:dc="http://purl.org/dc/elements/1.1/"
   xmlns:cc="http://creativecommons.org/ns#"
   xmlns:rdf="http://www.w3.org/1999/02/22-rdf-syntax-ns#"
   xmlns:svg="http://www.w3.org/2000/svg"
   xmlns="http://www.w3.org/2000/svg"
   xmlns:sodipodi="http://sodipodi.sourceforge.net/DTD/sodipodi-0.dtd"
   xmlns:inkscape="http://www.inkscape.org/namespaces/inkscape"
   width="210mm"
   height="297mm"
   viewBox="0 0 210 297"
   version="1.1"
   id="svg8"
   inkscape:version="1.0.2-2 (e86c870879, 2021-01-15)"
   sodipodi:docname="de-boa-na-lagoa.svg">
  <defs
     id="defs2">
    <rect
       x="78.217377"
       y="43.089287"
       width="61.959698"
       height="28.964373"
       id="rect5646" />
    <rect
       x="167.19324"
       y="216.9651"
       width="16.50318"
       height="16.508482"
       id="rect5640" />
    <rect
       x="167.19324"
       y="216.9651"
       width="16.50318"
       height="16.508482"
       id="rect5634" />
    <inkscape:perspective
       sodipodi:type="inkscape:persp3d"
       inkscape:vp_x="42.333331 : 354.72024 : 1"
       inkscape:vp_y="0 : 999.99999 : 0"
       inkscape:vp_z="252.33333 : 354.72024 : 1"
       inkscape:persp3d-origin="147.33333 : 305.22024 : 1"
       id="perspective1235" />
    <symbol
       id="Buffer_Small">
      <title
         id="title923">Buffer Small</title>
      <path
         d="M 9.9778537,10.583333 16.592437,13.229167 9.9778537,15.875 Z"
         id="path925"
         style="stroke-width:0.264583" />
    </symbol>
    <filter
       inkscape:collect="always"
       style="color-interpolation-filters:sRGB"
       id="filter2675"
       x="-0.011339213"
       width="1.0226784"
       y="-0.012660287"
       height="1.0253206">
      <feGaussianBlur
         inkscape:collect="always"
         stdDeviation="0.82147422"
         id="feGaussianBlur2677" />
    </filter>
    <filter
       inkscape:collect="always"
       style="color-interpolation-filters:sRGB"
       id="filter2687"
       x="-0.013306219"
       width="1.0266124"
       y="-0.014097399"
       height="1.0281948">
      <feGaussianBlur
         inkscape:collect="always"
         stdDeviation="0.82147422"
         id="feGaussianBlur2689" />
    </filter>
    <filter
       inkscape:collect="always"
       style="color-interpolation-filters:sRGB"
       id="filter3267"
       x="-0.01226469"
       width="1.0245295"
       y="-0.011456163"
       height="1.0229123">
      <feGaussianBlur
         inkscape:collect="always"
         stdDeviation="0.40234375"
         id="feGaussianBlur3269" />
    </filter>
    <filter
       inkscape:collect="always"
       style="color-interpolation-filters:sRGB"
       id="filter3335"
       x="-0.055083379"
       width="1.1101668"
       y="-0.046609011"
       height="1.093218">
      <feGaussianBlur
         inkscape:collect="always"
         stdDeviation="0.19085189"
         id="feGaussianBlur3337" />
    </filter>
    <filter
       inkscape:collect="always"
       style="color-interpolation-filters:sRGB"
       id="filter3383"
       x="-0.014880651"
       width="1.0297613"
       y="-0.017154081"
       height="1.0343082">
      <feGaussianBlur
         inkscape:collect="always"
         stdDeviation="0.38903013"
         id="feGaussianBlur3385" />
    </filter>
    <filter
       inkscape:collect="always"
       style="color-interpolation-filters:sRGB"
       id="filter3463"
       x="-0.0069977096"
       width="1.0139954"
       y="-0.0052001346"
       height="1.0104003">
      <feGaussianBlur
         inkscape:collect="always"
         stdDeviation="0.17853536"
         id="feGaussianBlur3465" />
    </filter>
  </defs>
  <sodipodi:namedview
     id="base"
     pagecolor="#ffffff"
     bordercolor="#666666"
     borderopacity="1.0"
     inkscape:pageopacity="0.0"
     inkscape:pageshadow="2"
     inkscape:zoom="0.35"
     inkscape:cx="227.81661"
     inkscape:cy="560"
     inkscape:document-units="mm"
     inkscape:current-layer="layer2"
     inkscape:document-rotation="0"
     showgrid="false"
     inkscape:object-paths="true"
     inkscape:lockguides="false"
     inkscape:window-width="1350"
     inkscape:window-height="728"
     inkscape:window-x="-8"
     inkscape:window-y="-2"
     inkscape:window-maximized="0"
     objecttolerance="10000"
     guidetolerance="10000"
     units="mm" />
  <metadata
     id="metadata5">
    <rdf:RDF>
      <cc:Work
         rdf:about="">
        <dc:format>image/svg+xml</dc:format>
        <dc:type
           rdf:resource="http://purl.org/dc/dcmitype/StillImage" />
        <dc:title></dc:title>
      </cc:Work>
    </rdf:RDF>
  </metadata>
  <g
     inkscape:groupmode="layer"
     id="layer2"
     inkscape:label="Layer 2">
    <path
       id="path19"
       style="fill:#aa4400;stroke-width:0.264583;filter:url(#filter2675)"
       d="m 188.9881,142.11905 c 0.34047,31.56961 -22.41633,59.95698 -51.25027,71.00124 C 100.02524,228.77485 51.549953,217.27373 28.056579,182.98726 11.526519,159.97474 10.837536,127.15389 26.539905,103.54048 48.187866,69.386726 94.463226,56.240593 132.0063,69.023488 c 29.86789,9.28009 54.8984,36.325462 56.81496,68.273992 0.11116,1.60462 0.16685,3.2131 0.16684,4.82157 z" />
    <path
       id="rect27"
       style="opacity:1;mix-blend-mode:normal;fill:#056500;fill-opacity:0.859438;stroke-width:0.264583"
       d="m -0.7559522,-1.5119047 c 70.5555532,0 141.1111122,0 211.6666622,0 0,100.0377007 0,200.0754047 0,300.1131047 -70.55555,0 -141.111109,0 -211.6666622,0 0,-100.0377 0,-200.075404 0,-300.1131047 z" />
    <g
       sodipodi:type="inkscape:box3d"
       id="g1307"
       style="fill:#552200;fill-opacity:1"
       inkscape:perspectiveID="#perspective1235"
       inkscape:corner0="-1.4340551 : 0.10218344 : 0 : 1"
       inkscape:corner7="-1.4340551 : 0.10218344 : 0.25 : 1">
      <path
         sodipodi:type="inkscape:box3dside"
         id="path1313"
         style="fill:#8686bf;fill-rule:evenodd;stroke:none;stroke-linejoin:round"
         inkscape:box3dsidetype="3"
         d="m -199.57144,63.654769 v 0 0 z"
         points="-199.57144,63.654769 -199.57144,63.654769 " />
      <path
         sodipodi:type="inkscape:box3dside"
         id="path1317"
         style="fill:#afafde;fill-rule:evenodd;stroke:none;stroke-linejoin:round"
         inkscape:box3dsidetype="13"
         d="m -199.57144,63.654769 v 0 L -813.38869,228.51708 v 0 z"
         points="-199.57144,63.654769 -813.38869,228.51708 -813.38869,228.51708 -199.57144,63.654769 " />
      <path
         sodipodi:type="inkscape:box3dside"
         id="path1309"
         style="fill:#353564;fill-rule:evenodd;stroke:none;stroke-linejoin:round"
         inkscape:box3dsidetype="6"
         d="m -199.57144,63.654769 v 0 L -813.38869,228.51708 v 0 z"
         points="-199.57144,63.654769 -813.38869,228.51708 -813.38869,228.51708 -199.57144,63.654769 " />
      <path
         sodipodi:type="inkscape:box3dside"
         id="path1311"
         style="fill:#4d4d9f;fill-rule:evenodd;stroke:none;stroke-linejoin:round"
         inkscape:box3dsidetype="5"
         d="m -199.57144,63.654769 v 0 L -813.38869,228.51708 v 0 z"
         points="-199.57144,63.654769 -813.38869,228.51708 -813.38869,228.51708 -199.57144,63.654769 " />
      <path
         sodipodi:type="inkscape:box3dside"
         id="path1315"
         style="fill:#d7d7ff;fill-rule:evenodd;stroke:none;stroke-linejoin:round"
         inkscape:box3dsidetype="14"
         d="m -199.57144,63.654769 v 0 L -813.38869,228.51708 v 0 z"
         points="-199.57144,63.654769 -813.38869,228.51708 -813.38869,228.51708 -199.57144,63.654769 " />
      <path
         sodipodi:type="inkscape:box3dside"
         id="path1319"
         style="fill:#e9e9ff;fill-rule:evenodd;stroke:none;stroke-linejoin:round"
         inkscape:box3dsidetype="11"
         d="m -813.38869,228.51708 v 0 0 z"
         points="-813.38869,228.51708 -813.38869,228.51708 " />
    </g>
    <g
       id="g1374"
       transform="translate(234.69953,-76.797167)"
       style="stroke:#000900;stroke-opacity:0.674699;filter:url(#filter3463)">
      <path
         id="rect1349"
         style="fill:#612200;fill-opacity:1;stroke:#000900;stroke-width:0.264583;stroke-opacity:0.674699"
         d="m -156.48215,102.05357 c 6.80357,0 13.60715,0 20.41072,0 0,23.68651 0,47.37302 0,71.05953 -6.80357,0 -13.60715,0 -20.41072,0 0,-23.68651 0,-47.37302 0,-71.05953 z" />
      <path
         id="rect1351"
         style="fill:#612200;fill-opacity:1;stroke:#000900;stroke-width:0.264583;stroke-opacity:0.674699"
         d="m -139.85118,102.05357 c 6.35137,-1.90864 2.94404,5.94142 3.77976,9.54843 2.57406,4.72369 -4.04542,9.99745 -3.77976,3.38859 0,-4.31234 0,-8.62468 0,-12.93702 z" />
      <path
         id="rect1358"
         style="fill:#4d2200;fill-opacity:1;stroke:#000900;stroke-width:0.264583;stroke-opacity:0.674699"
         d="m -151.19046,90.714294 c 5.03968,0 10.07936,0 15.11904,0 0,27.466266 0,54.932536 0,82.398806 -5.03968,0 -10.07936,0 -15.11904,0 0,-27.46627 0,-54.93254 0,-82.398806 z" />
      <path
         id="rect1360"
         style="fill:#4d0800;fill-opacity:0.84739;stroke:#000900;stroke-width:0.245196;stroke-opacity:0.674699"
         d="m -139.85118,117.92857 c 5.03968,0 10.07937,0 15.11905,0 0,18.39484 0,36.78968 0,55.18452 -5.03968,0 -10.07937,0 -15.11905,0 0,-18.39484 0,-36.78968 0,-55.18452 z" />
      <path
         id="rect1364"
         style="fill:#2e0800;fill-opacity:1;stroke:#000900;stroke-width:0.264583;stroke-opacity:0.674699"
         d="m -124.73213,101.29762 c 5.03968,0 10.07937,0 15.11905,0 0,23.93849 0,47.87699 0,71.81548 -5.03968,0 -10.07937,0 -15.11905,0 0,-23.93849 0,-47.87699 0,-71.81548 z" />
      <path
         id="rect1366"
         style="fill:#460900;fill-opacity:0.951807;stroke:#000900;stroke-width:0.264583;stroke-opacity:0.674699"
         d="m -109.61308,130.0238 c 4.7877,0 9.57539,0 14.363091,0 0,14.3631 0,28.72619 0,43.08929 -4.787701,0 -9.575391,0 -14.363091,0 0,-14.3631 0,-28.72619 0,-43.08929 z" />
    </g>
    <g
       id="g5536"
       style="fill:#1f3737;fill-opacity:1"
       transform="translate(-117.92857,129.26786)">
      <path
         id="path5524"
         style="opacity:1;fill:#1f3737;fill-opacity:1;stroke:#000900;stroke-width:0.264583;stroke-opacity:0.674699"
         d="m 297.08929,82.020836 c 0.51969,7.917065 -6.31,17.75916 -15.06532,15.022533 -12.5221,-4.690165 -12.14197,-26.559643 0.89469,-30.289719 8.6551,-1.829187 14.44698,7.689141 14.17063,15.267186 z" />
      <path
         id="path5526"
         style="opacity:1;fill:#1f3737;fill-opacity:1;stroke:#000900;stroke-width:0.264583;stroke-opacity:0.674699"
         d="m 306.91665,87.690475 c 0.6078,7.17382 -7.49567,14.297925 -14.23137,10.13694 -8.90593,-4.830227 -6.27007,-21.260125 4.40398,-21.476225 5.86397,-0.03391 9.96429,5.858328 9.82739,11.339285 z" />
      <path
         id="path5528"
         style="opacity:1;fill:#1f3737;fill-opacity:1;stroke:#000900;stroke-width:0.264583;stroke-opacity:0.674699"
         d="m 301.62499,104.20573 c 0.46811,5.49657 -7.47538,8.53852 -10.46941,3.69698 -3.66058,-4.45567 1.5705,-12.063116 6.98361,-9.344026 2.15291,0.979151 3.50754,3.307686 3.4858,5.647046 z" />
      <path
         id="path5530"
         style="opacity:1;fill:#1f3737;fill-opacity:1;stroke:#000900;stroke-width:0.264583;stroke-opacity:0.674699"
         d="m 294.02443,96.380531 c 0.12649,8.529899 -12.36841,11.774659 -17.09474,5.063629 -4.89938,-5.749391 1.11253,-14.703133 8.19212,-13.746912 4.60379,0.140887 8.95707,3.908766 8.90262,8.683283 z" />
    </g>
  </g>
  <g
     inkscape:label="Layer 1"
     inkscape:groupmode="layer"
     id="layer1">
    <path
       id="path10"
       style="fill:#00abff;fill-opacity:1;stroke-width:0.321879;filter:url(#filter2687)"
       d="m 176.89285,150.05655 c 0.41334,30.25176 -22.00007,57.87683 -50.60855,66.32226 -32.341152,10.7335 -71.477751,-2.75124 -88.4618,-32.75114 -14.68571,-24.2569 -11.086037,-57.42588 8.017745,-78.2719 23.33213,-27.093998 66.350315,-33.028819 96.618275,-14.367383 20.64016,12.088303 34.62619,34.957513 34.43433,59.068163 z" />
    <g
       id="g5492"
       style="stroke:#000500;stroke-opacity:0.674699">
      <g
         id="g1178"
         transform="translate(229.05357,25.702381)"
         style="stroke:#000500;stroke-opacity:0.674699">
        <g
           id="g1134"
           transform="translate(29.482143,29.482143)"
           style="fill:#17560f;fill-opacity:0.164706;stroke:#000500;stroke-opacity:0.674699">
          <g
             id="g1124"
             style="fill:#17560f;fill-opacity:0.164706;stroke:#000500;stroke-opacity:0.674699">
            <path
               id="path1105"
               style="fill:#17890f;fill-opacity:0.855422;stroke:#000500;stroke-width:0.264583;stroke-opacity:0.674699"
               inkscape:transform-center-x="-0.70080811"
               inkscape:transform-center-y="0.84941946"
               d="m -133.80358,147.41071 c -5.55503,-2.9375 -11.11005,-5.875 -16.66508,-8.8125 1.07713,-6.19088 2.15426,-12.38176 3.23139,-18.57264 6.22073,-0.88867 12.44146,-1.77735 18.66219,-2.66602 2.76749,5.64165 5.53498,11.28329 8.30247,16.92494 -4.51032,4.37541 -9.02065,8.75081 -13.53097,13.12622 z" />
          </g>
          <path
             id="path1110"
             style="fill:#17560f;fill-opacity:0.963855;stroke:#000500;stroke-width:0.264583;stroke-opacity:0.674699"
             d="m -145.14286,138.33929 c 0.29011,5.21254 -8.05631,6.17038 -8.95369,1.02674 -1.45606,-4.98729 6.40164,-7.83161 8.47159,-3.06166 0.31621,0.62853 0.48271,1.33133 0.4821,2.03492 z" />
          <path
             id="path1112"
             style="fill:#17560f;fill-opacity:0.983936;stroke:#000500;stroke-width:0.264583;stroke-opacity:0.674699"
             d="m -124.73214,117.17263 c 0.2901,5.21253 -8.05631,6.17037 -8.95369,1.02673 -1.45606,-4.98729 6.40164,-7.8316 8.47159,-3.06165 0.31621,0.62853 0.48271,1.33133 0.4821,2.03492 z" />
          <path
             id="path1114"
             style="fill:#17560f;fill-opacity:1;stroke:#000500;stroke-width:0.264583;stroke-opacity:0.674699"
             d="m -127,149.3006 c 0.47145,5.54963 -7.40613,8.85654 -10.69048,4.11745 -4.04519,-4.46531 1.04912,-12.6893 6.8315,-10.1075 2.37072,0.95763 3.88425,3.46583 3.85898,5.99005 z" />
          <a
             id="a1120"
             style="fill:#17560f;fill-opacity:0.164706;stroke:#000500;stroke-opacity:0.674699">
            <path
               id="path1116"
               style="fill:#008000;fill-opacity:0.971888;stroke:#000500;stroke-width:0.264583;stroke-opacity:0.674699"
               d="m -142.87501,121.33035 c 0.47011,5.14699 -7.06365,7.89501 -9.65528,3.20725 -3.25516,-4.29303 2.0666,-11.22326 6.9132,-8.17541 1.72663,1.00564 2.75553,2.98941 2.74208,4.96816 z" />
          </a>
          <path
             id="path1118"
             style="fill:#17560f;fill-opacity:0.947791;stroke:#000500;stroke-width:0.264583;stroke-opacity:0.674699"
             d="m -111.12502,134.55954 c -0.76283,6.30099 -12.80907,6.03881 -12.81446,-0.48426 1.25439,-5.57358 12.23028,-5.40903 12.81446,0.48426 z" />
        </g>
        <path
           id="path1160"
           style="fill:#552200;fill-opacity:0.983936;stroke:#000500;stroke-width:0.264583;stroke-opacity:0.674699"
           d="m -107.34523,161.01785 c -1.16538,4.86946 -9.34818,4.9815 -11.82935,1.10844 -2.29775,-5.13156 10.73637,-7.29493 11.82935,-1.10844 z" />
        <path
           id="path1162"
           style="fill:#552200;fill-opacity:0.983936;stroke:#000500;stroke-width:0.264583;stroke-opacity:0.674699"
           d="m -98.273817,150.8125 c 0.111381,6.05949 -9.926993,6.56946 -10.545603,0.58574 -0.84356,-5.86923 8.65552,-7.60593 10.300494,-2.06389 0.16157,0.47496 0.245324,0.9764 0.245109,1.47815 z" />
        <path
           id="path1164"
           style="fill:#552200;fill-opacity:0.983936;stroke:#000500;stroke-width:0.264583;stroke-opacity:0.674699"
           d="m -93.738095,162.90773 c -0.09515,6.55079 -11.489065,6.39781 -11.335505,-0.17935 0.47739,-6.3539 11.091314,-6.23529 11.335505,0.17935 z" />
      </g>
    </g>
    <path
       id="path1212"
       style="fill:#552200;fill-opacity:1;stroke-width:0.264583;filter:url(#filter3335)"
       d="m 123.97619,194.65775 c 0.54052,4.0278 -5.20838,6.91528 -7.43149,3.02909 -2.85748,-3.44594 1.20525,-10.1853 5.45339,-7.21346 1.30599,0.95246 1.98205,2.59539 1.9781,4.18437 z" />
    <g
       id="g1233"
       transform="translate(207.8869,-24.190476)"
       style="stroke:#000000;stroke-opacity:1;filter:url(#filter3267)">
      <g
         id="g1202"
         style="fill:#005900;fill-opacity:1;stroke:#000000;stroke-opacity:1">
        <path
           id="path1101"
           style="fill:#005900;fill-opacity:1;stroke:#000000;stroke-width:0.264583;stroke-opacity:1"
           inkscape:transform-center-x="-2.5696256"
           inkscape:transform-center-y="0.01050139"
           d="m -115.72536,188.21112 c -10.06342,-3.28381 -20.12685,-6.56761 -30.19027,-9.85142 0.0133,-10.58564 0.0267,-21.17127 0.04,-31.75691 10.07165,-3.25847 20.14331,-6.51695 30.21496,-9.77542 6.21131,8.57179 12.42261,17.14357 18.633917,25.71536 -6.232867,8.55613 -12.465737,17.11226 -18.698607,25.66839 z" />
        <path
           id="path1182"
           style="fill:#005900;fill-opacity:1;stroke:#000000;stroke-width:0.264583;stroke-opacity:1"
           inkscape:transform-center-x="-30.238095"
           inkscape:transform-center-y="4.5357143"
           d="m -114.52679,203.3512 c -6.16679,-0.97123 -7.25524,-9.18131 -5.91047,-14.20903 0.45172,-4.37135 6.13651,-8.67392 9.5636,-4.39191 4.14935,5.1456 4.01866,14.97937 -2.26725,18.36075 -0.44431,0.15631 -0.91458,0.2406 -1.38588,0.24019 z" />
        <path
           id="ellipse1184"
           style="fill:#005900;fill-opacity:1;stroke:#000000;stroke-width:0.264583;stroke-opacity:1"
           d="m -86.821437,162.54272 c -0.971222,6.16679 -9.181314,7.25525 -14.209033,5.91048 -4.37135,-0.45172 -8.67392,-6.13651 -4.39191,-9.5636 5.1456,-4.14935 14.979374,-4.01866 18.36075,2.26725 0.156309,0.44431 0.240607,0.91457 0.240193,1.38587 z" />
        <path
           id="ellipse1186"
           style="fill:#005900;fill-opacity:1;stroke:#000000;stroke-width:0.264583;stroke-opacity:1"
           d="m -135.71026,178.35971 c -0.97122,6.1668 -9.18132,7.25525 -14.20904,5.91048 -4.37135,-0.45172 -8.67392,-6.13651 -4.39191,-9.5636 5.1456,-4.14935 14.97938,-4.01866 18.36076,2.26725 0.15631,0.44431 0.2406,0.91457 0.24019,1.38587 z" />
        <path
           id="ellipse1188"
           style="fill:#005900;fill-opacity:1;stroke:#000000;stroke-width:0.26602;stroke-opacity:1"
           inkscape:transform-center-x="-18.89881"
           inkscape:transform-center-y="0.75595238"
           d="m -116.0387,140.98513 c -5.56631,-1.08962 -6.33444,-8.44359 -5.92965,-13.11578 0.22279,-3.76223 2.81705,-10.32389 7.61622,-8.37196 5.54033,4.28388 5.40271,13.25624 2.1846,18.94778 -0.86046,1.31289 -2.21086,2.54095 -3.87117,2.53996 z" />
        <path
           id="path1194"
           style="fill:#005900;fill-opacity:1;stroke:#000000;stroke-width:0.264583;stroke-opacity:1"
           d="m -139.07209,147.76271 c -1.16315,5.39611 -8.24345,6.12422 -12.81339,6.39628 -4.80923,-0.14637 -12.06516,-0.70916 -13.66117,-6.18973 0.75776,-5.33842 7.73778,-6.22531 12.1172,-6.58336 4.99642,0.0261 12.16962,0.4695 14.31019,5.83711 0.0312,0.17809 0.0472,0.35889 0.0472,0.5397 z" />
      </g>
      <path
         id="path1204"
         style="fill:#552200;fill-opacity:1;stroke:#000000;stroke-width:0.264583;stroke-opacity:1"
         d="m -108.10118,175.00298 c -0.78349,8.12798 -12.24834,10.02386 -17.94944,5.69938 -4.86226,-2.83687 -3.74405,-10.27938 1.31614,-12.21208 5.72075,-3.11952 16.07245,-1.13862 16.6333,6.5127 z" />
      <path
         id="path1206"
         style="fill:#552200;fill-opacity:1;stroke:#000000;stroke-width:0.264583;stroke-opacity:1"
         d="m -123.22023,159.12798 c -0.12828,9.07258 -14.60264,10.79184 -17.64669,2.58911 -2.75734,-6.89968 6.07763,-12.71908 12.13491,-9.88997 3.04386,1.08219 5.54531,3.96898 5.51178,7.30086 z" />
      <path
         id="path1208"
         style="fill:#552200;fill-opacity:1;stroke:#000000;stroke-width:0.264583;stroke-opacity:1"
         d="m -108.85714,157.61606 c 0.4701,5.14699 -7.06366,7.895 -9.65529,3.20724 -3.25516,-4.29304 2.0666,-11.22324 6.9132,-8.17541 1.72663,1.00565 2.75554,2.98942 2.74209,4.96817 z" />
      <path
         id="path1210"
         style="fill:#552200;fill-opacity:1;stroke:#000000;stroke-width:0.264583;stroke-opacity:1"
         d="m -134.55953,175.38095 c 0.60376,4.33414 -5.16433,8.3652 -8.2713,4.41549 -3.68235,-3.60316 -0.53019,-12.27302 5.08047,-10.07919 2.11601,0.98942 3.20066,3.41617 3.19083,5.6637 z" />
      <path
         id="path1214"
         style="fill:#552200;fill-opacity:1;stroke:#000000;stroke-width:0.264583;stroke-opacity:1"
         d="m -117.17261,147.78868 c 0.6571,3.73762 -4.25837,7.95133 -7.00479,4.13186 -2.99193,-3.20783 -0.74942,-11.40633 4.37818,-9.40305 1.82988,1.02573 2.62408,3.27272 2.62661,5.27119 z" />
    </g>
    <g
       id="g1404"
       style="fill:#241c1c;fill-opacity:0.971888;filter:url(#filter3383)"
       transform="matrix(0.67469882,0,0,0.76388894,248.67191,10.614824)">
      <path
         id="path1376"
         style="fill:#241c1c;fill-opacity:0.971888;stroke-width:0.264583"
         d="m -150.43452,159.12798 c -0.97796,10.32903 -14.26815,13.44178 -22.75186,10.89481 -7.3818,-1.14388 -14.17253,-10.35462 -8.21073,-16.83949 7.846,-8.60013 25.60565,-7.91566 30.5676,3.40615 0.25875,0.81976 0.3955,1.6786 0.39499,2.53853 z" />
      <path
         id="path1380"
         style="fill:#241c1c;fill-opacity:0.971888;stroke-width:0.264583"
         d="m -136.07143,171.60118 c -1.32536,6.10229 -12.62993,6.16025 -14.3497,0.27683 0.26447,-6.38545 13.66174,-6.41015 14.3497,-0.27683 z" />
      <path
         id="path1382"
         style="fill:#241c1c;fill-opacity:0.971888;stroke-width:0.264583"
         d="m -161.01786,182.18451 c 0.33961,6.22768 -9.70483,7.14286 -10.49621,0.95626 -1.45871,-6.0602 8.24708,-8.77926 10.14859,-2.84256 0.22945,0.60063 0.34789,1.24334 0.34762,1.8863 z" />
      <path
         id="path1386"
         style="fill:#241c1c;fill-opacity:0.971888;stroke-width:0.264583"
         d="m -148.16666,191.25594 c 0.81702,4.56528 -4.88926,10.48777 -8.66537,5.82391 -3.93331,-4.05473 -1.76454,-15.0293 5.08441,-12.97751 2.54778,1.32076 3.57019,4.45222 3.58096,7.1536 z" />
      <path
         id="path1388"
         style="fill:#241c1c;fill-opacity:0.971888;stroke-width:0.264583"
         d="m -121.70834,192.38989 c 0.4855,8.62118 -11.90722,12.92527 -16.86734,5.85368 -6.20572,-6.99097 2.50052,-18.6027 10.94899,-14.61854 3.52356,1.37689 5.95784,4.98114 5.91835,8.76486 z" />
      <path
         id="path1390"
         style="fill:#241c1c;fill-opacity:0.971888;stroke-width:0.264583"
         d="m -120.95238,165.55357 c 0.83941,4.56867 -5.64399,8.66687 -8.11464,3.71519 -2.88619,-3.76594 0.6588,-12.19882 5.78996,-8.9956 1.60587,1.21971 2.32102,3.32044 2.32468,5.28041 z" />
      <path
         id="path1392"
         style="fill:#241c1c;fill-opacity:0.971888;stroke-width:0.264583"
         d="m -139.09524,156.48215 c 0.92392,3.37081 -3.77394,7.81965 -5.45073,3.15653 -2.70126,-3.41108 1.9668,-12.3689 4.9249,-6.13849 0.36626,0.94766 0.5237,1.96864 0.52583,2.98196 z" />
    </g>
    <text
       xml:space="preserve"
       style="font-style:normal;font-variant:normal;font-weight:bold;font-stretch:normal;font-size:25.4px;line-height:1.25;font-family:'Monotype Corsiva';-inkscape-font-specification:'Monotype Corsiva Bold';opacity:1;mix-blend-mode:luminosity;fill:#000000;fill-opacity:1;stroke:none;stroke-width:0.264583"
       x="49.588737"
       y="263.07141"
       id="text1416"
       transform="skewX(3.5937489)"><tspan
         sodipodi:role="line"
         id="tspan1414"
         x="49.588737"
         y="263.07141"
         style="font-style:normal;font-variant:normal;font-weight:bold;font-stretch:normal;font-size:25.4px;font-family:'Monotype Corsiva';-inkscape-font-specification:'Monotype Corsiva Bold';stroke-width:0.264583" /></text>
    <path
       id="text1607"
       style="font-style:normal;font-variant:normal;font-weight:normal;font-stretch:normal;font-size:24.0772px;line-height:1.25;font-family:Mistral;-inkscape-font-specification:Mistral;text-align:end;text-anchor:end;mix-blend-mode:normal;stroke-width:0.264583"
       d="m 57.279762,237.13495 c -6.699701,1.62234 1.091442,5.74644 0,0 z m -23.962891,-1.45313 c 1.332818,-0.18496 -0.436642,1.1354 0,0 z m 0.355469,-0.75976 0.403515,0.17485 z m -6.08789,-6.28321 c -1.480564,0.94265 -0.815545,3.66951 -1.472064,5.14238 -6.16356,15.79114 13.178027,-0.49066 1.472064,-5.14238 z m -2.798829,-3.74609 c 7.522963,1.10767 10.848768,7.71817 6.718299,14.08288 2.797436,-3.85588 10.465708,-10.07053 4.001396,-0.23723 6.634302,1.45912 0.999436,2.58124 -2.80347,1.98243 -13.085277,9.6076 -7.422005,-11.31201 -7.916225,-15.82808 z m 25.763672,-0.0332 c 2.380677,1.66387 -0.884548,6.42515 -1.535763,8.6458 -4.371579,7.29142 -0.149692,1.72229 2.860117,4.29734 3.032183,-7.31362 8.117171,-0.61773 8.649474,-0.52113 6.970433,-8.799 3.738742,0.72661 7.13696,3.19947 -4.620128,-1.09243 -11.240271,4.76141 -15.296998,-0.83734 -10.560198,10.96672 -7.826859,-11.28122 -1.81379,-14.78414 z" />
    <path
       id="text1611"
       style="font-style:normal;font-variant:normal;font-weight:normal;font-stretch:normal;font-size:22.5778px;line-height:1.25;font-family:Mistral;-inkscape-font-specification:Mistral;text-align:end;text-anchor:end;mix-blend-mode:normal;stroke-width:0.264583"
       d="m 89.92327,250.93992 c -4.654853,2.89762 -6.248028,6.28667 -10.050781,2.99218 -4.049461,6.15515 0.133215,-7.99125 -5.947024,0.85583 -1.449038,2.30067 2.269645,0.56541 1.684585,4.69456 4.565952,-8.03576 8.032871,3.65358 12.849132,-2.19554 7.908211,1.69968 -2.197132,-2.32599 1.936062,-6.16753 l -0.47197,-0.17945 z" />
    <path
       id="text1615"
       style="font-style:normal;font-variant:normal;font-weight:normal;font-stretch:normal;font-size:22.5778px;line-height:1.25;font-family:Mistral;-inkscape-font-specification:Mistral;text-align:end;text-anchor:end;mix-blend-mode:normal;stroke-width:0.264583"
       d="m 111.44336,261.65057 c -5.60797,6.4192 -4.62176,21.48654 5.69334,14.42172 1.60595,-0.63495 11.44104,-1.71347 5.73104,5.1813 0.0742,7.43423 8.36537,-1.98582 5.2951,-5.25408 2.42978,-2.13589 9.2563,4.02005 13.22389,-1.46805 2.43932,4.27897 5.70701,-0.66053 1.76953,-1.93164 -4.96285,0.77562 4.68683,-6.37049 -2.82234,-1.99285 -4.81128,8.29836 -4.89479,-7.30738 -10.28797,2.0603 -5.15316,2.8873 0.80911,-10.89091 -6.02504,-0.82448 -1.05324,1.75064 -6.53518,0.63708 -3.54006,-2.75078 -5.15462,4.75008 -14.2917,10.60221 -9.34611,-1.60428 -0.66798,-1.0205 2.14842,-5.34823 0.30862,-5.83716 z m 22.78516,10.53125 c 2.17416,4.91883 -6.22048,3.65615 0,0 z m -7.88477,0.3711 c 7.69885,4.5739 -5.84952,3.66791 0,0 z m 20.82227,0.76171 c 1.05483,-0.29039 -0.20847,-1.05885 0,0 z m 4.65429,1.5625 c -1.44995,5.02183 4.50936,1.50871 0,0 z m 4.99805,0 c -1.46569,5.01099 4.50774,1.52253 0,0 z m -10.04688,0.10352 c -1.17703,4.83002 4.01133,0.41353 0,0 z m -20.24609,4.36328 c -0.94293,8.35245 -5.82998,0.21806 0,0 z" />
    <text
       xml:space="preserve"
       id="text5632"
       style="font-size:10.5833px;line-height:1.25;font-family:'HoloLens MDL2 Assets';-inkscape-font-specification:'HoloLens MDL2 Assets';text-align:end;white-space:pre;shape-inside:url(#rect5634);" />
    <text
       xml:space="preserve"
       id="text5638"
       style="font-size:10.5833px;line-height:1.25;font-family:'HoloLens MDL2 Assets';-inkscape-font-specification:'HoloLens MDL2 Assets';text-align:end;white-space:pre;shape-inside:url(#rect5640);" />
    <text
       xml:space="preserve"
       id="text5644"
       style="font-size:10.5833px;line-height:1.25;font-family:'HoloLens MDL2 Assets';-inkscape-font-specification:'HoloLens MDL2 Assets';text-align:end;white-space:pre;shape-inside:url(#rect5646);" />
  </g>
</svg>
